<svg width="1400" height="420" viewBox="0 0 1400 420" fill="none" xmlns="http://www.w3.org/2000/svg">
  <defs>
    <linearGradient id="g" x1="0" y1="0" x2="1400" y2="420" gradientUnits="userSpaceOnUse">
      <stop stop-color="#0f172a"/>
      <stop offset="0.5" stop-color="#0b1220"/>
      <stop offset="1" stop-color="#111827"/>
    </linearGradient>
    <radialGradient id="pulse" cx="50%" cy="50%" r="65%">
      <stop offset="0%" stop-color="#6366f1" stop-opacity="0.55"/>
      <stop offset="40%" stop-color="#06b6d4" stop-opacity="0.35"/>
      <stop offset="100%" stop-color="#111827" stop-opacity="0"/>
    </radialGradient>
    <linearGradient id="txt" x1="0" y1="0" x2="100%" y2="0">
      <stop offset="0%" stop-color="#60a5fa"/>
      <stop offset="50%" stop-color="#a78bfa"/>
      <stop offset="100%" stop-color="#34d399"/>
    </linearGradient>
    <filter id="blur">
      <feGaussianBlur stdDeviation="60" />
    </filter>
  </defs>

  <rect width="1400" height="420" fill="url(#g)"/>
  <g filter="url(#blur)">
    <circle cx="280" cy="120" r="220" fill="url(#pulse)"/>
    <circle cx="1150" cy="320" r="260" fill="url(#pulse)"/>
  </g>

  <!-- Headline -->
  <text x="60" y="185" font-family="Inter, Segoe UI, Roboto, Arial" font-weight="800" font-size="64" fill="url(#txt)">
    Trần Nguyễn Thành Chơn · tranchon2702
  </text>
  <text x="60" y="240" font-family="Inter, Segoe UI, Roboto, Arial" font-weight="600" font-size="28" fill="#cbd5e1">
    Full-Stack Developer · JavaScript · Node.js · React · Next.js · DevOps
  </text>

  <!-- Pills -->
  <g font-family="Inter, Segoe UI, Roboto, Arial" font-weight="600" font-size="18">
    <rect x="60" y="280" rx="14" ry="14" width="210" height="40" fill="#0ea5e9" opacity="0.18"/>
    <text x="85" y="305" fill="#93c5fd">Building modern web apps</text>

    <rect x="290" y="280" rx="14" ry="14" width="190" height="40" fill="#8b5cf6" opacity="0.18"/>
    <text x="315" y="305" fill="#d8b4fe">UI/UX & Performance</text>

    <rect x="500" y="280" rx="14" ry="14" width="170" height="40" fill="#10b981" opacity="0.18"/>
    <text x="525" y="305" fill="#a7f3d0">Docker · Nginx</text>
  </g>

  <!-- Right Octocat silhouette -->
  <path d="M1150 180c-50 0-90 40-90 90 0 40 26 74 62 86 5 1 7-2 7-5 0-3 0-14 0-26-25 5-31-6-33-12-1-3-6-12-10-14-3-2-8-7 0-7 7 0 12 6 14 9 8 14 21 10 26 8 1-6 4-10 7-12-22-2-45-11-45-49 0-11 4-21 10-29-1-2-4-12 1-26 0 0 8-3 29 11 8-2 16-3 24-3s16 1 24 3c21-14 29-11 29-11 5 14 2 24 1 26 6 8 10 18 10 29 0 38-23 47-45 49 4 3 8 9 8 19 0 14 0 26 0 29 0 3 2 6 7 5 36-12 62-46 62-86 0-50-40-90-90-90z" fill="#0b1220" fill-opacity="0.8"/>
</svg>
